HIERARCHY
ROOT Hips
{
  OFFSET 5.84602e-005 68.8428 3.50346
  CHANNELS 6 Xposition Yposition Zposition Zrotation Xrotation Yrotation
  JOINT Spine
  {
    OFFSET 0 8.597 -4.6522
    CHANNELS 3 Zrotation Xrotation Yrotation
    JOINT Spine1
    {
      OFFSET 0 7.8454 0.4098
      CHANNELS 3 Zrotation Xrotation Yrotation
      JOINT Spine2
      {
        OFFSET 0 9.7078 -2.1609
        CHANNELS 3 Zrotation Xrotation Yrotation
        JOINT Neck
        {
          OFFSET 0 21.8761 -0.4549
          CHANNELS 3 Zrotation Xrotation Yrotation
          JOINT Head
          {
            OFFSET 0 12.3537 3.3602
            CHANNELS 3 Zrotation Xrotation Yrotation
            End Site
            {
              OFFSET 0.0001 18.9506 0.5657
            }
          }
        }
        JOINT LeftShoulder
        {
          OFFSET 2.2086 21.1115 7.2329
          CHANNELS 3 Zrotation Xrotation Yrotation
          JOINT LeftArm
          {
            OFFSET 13.1193 3.0282 -4.8998
            CHANNELS 3 Zrotation Xrotation Yrotation
            JOINT LeftForeArm
            {
              OFFSET 27.4081 -0.0973053 -0.2375
              CHANNELS 3 Zrotation Xrotation Yrotation
              JOINT LeftHand
              {
                OFFSET 22.8641 0.0662994 -0.1369
                CHANNELS 3 Zrotation Xrotation Yrotation
                JOINT LeftHandIndex1
                {
                  OFFSET 8.8614 0.775009 2.4612
                  CHANNELS 3 Zrotation Xrotation Yrotation
                  JOINT LeftHandIndex2
                  {
                    OFFSET 3.3146 -0.808304 0.5841
                    CHANNELS 3 Zrotation Xrotation Yrotation
                    JOINT LeftHandIndex3
                    {
                      OFFSET 2.2628 -0.552002 0.3989
                      CHANNELS 3 Zrotation Xrotation Yrotation
                      End Site
                      {
                        OFFSET 1.6102 -0.4807 0.2612
                      }
                    }
                  }
                }
                JOINT LeftHandMiddle1
                {
                  OFFSET 8.9937 0.895004 0.2143
                  CHANNELS 3 Zrotation Xrotation Yrotation
                  JOINT LeftHandMiddle2
                  {
                    OFFSET 4.0984 0.0113983 -0.0242
                    CHANNELS 3 Zrotation Xrotation Yrotation
                    JOINT LeftHandMiddle3
                    {
                      OFFSET 2.2716 0.00689697 -0.0138001
                      CHANNELS 3 Zrotation Xrotation Yrotation
                      End Site
                      {
                        OFFSET 2.0404 -0.1441 0.0027
                      }
                    }
                  }
                }
                JOINT LeftHandRing1
                {
                  OFFSET 8.5234 0.597198 -2.0164
                  CHANNELS 3 Zrotation Xrotation Yrotation
                  JOINT LeftHandRing2
                  {
                    OFFSET 3.7188 -0.188293 -0.2328
                    CHANNELS 3 Zrotation Xrotation Yrotation
                    JOINT LeftHandRing3
                    {
                      OFFSET 2.1191 -0.106598 -0.1332
                      CHANNELS 3 Zrotation Xrotation Yrotation
                      End Site
                      {
                        OFFSET 1.8737 -0.2304 -0.0886
                      }
                    }
                  }
                }
                JOINT LeftHandPinky1
                {
                  OFFSET 7.9094 -0.601089 -3.4825
                  CHANNELS 3 Zrotation Xrotation Yrotation
                  JOINT LeftHandPinky2
                  {
                    OFFSET 2.2874 -0.477005 -0.6314
                    CHANNELS 3 Zrotation Xrotation Yrotation
                    JOINT LeftHandPinky3
                    {
                      OFFSET 1.6774 -0.349396 -0.4633
                      CHANNELS 3 Zrotation Xrotation Yrotation
                      End Site
                      {
                        OFFSET 1.4888 -0.4091 -0.3416
                      }
                    }
                  }
                }
                JOINT LeftHandThumb1
                {
                  OFFSET 1.833 -1.3875 1.3896
                  CHANNELS 3 Zrotation Xrotation Yrotation
                  JOINT LeftHandThumb2
                  {
                    OFFSET 3.4129 -1.121 2.5732
                    CHANNELS 3 Zrotation Xrotation Yrotation
                    JOINT LeftHandThumb3
                    {
                      OFFSET 2.2474 -0.804199 1.6192
                      CHANNELS 3 Zrotation Xrotation Yrotation
                      End Site
                      {
                        OFFSET 1.6527 -0.5689 1.1317
                      }
                    }
                  }
                }
              }
            }
          }
        }
        JOINT RightShoulder
        {
          OFFSET -2.2086 21.1115 7.2329
          CHANNELS 3 Zrotation Xrotation Yrotation
          JOINT RightArm
          {
            OFFSET -13.1216 3.0287 -4.9007
            CHANNELS 3 Zrotation Xrotation Yrotation
            JOINT RightForeArm
            {
              OFFSET -27.4081 -0.0973053 -0.2375
              CHANNELS 3 Zrotation Xrotation Yrotation
              JOINT RightHand
              {
                OFFSET -22.8641 0.0664063 -0.1369
                CHANNELS 3 Zrotation Xrotation Yrotation
                JOINT RightHandIndex1
                {
                  OFFSET -8.8614 0.774994 2.4612
                  CHANNELS 3 Zrotation Xrotation Yrotation
                  JOINT RightHandIndex2
                  {
                    OFFSET -3.3146 -0.808304 0.5841
                    CHANNELS 3 Zrotation Xrotation Yrotation
                    JOINT RightHandIndex3
                    {
                      OFFSET -2.2628 -0.552002 0.3989
                      CHANNELS 3 Zrotation Xrotation Yrotation
                      End Site
                      {
                        OFFSET -1.6102 -0.4807 0.2612
                      }
                    }
                  }
                }
                JOINT RightHandMiddle1
                {
                  OFFSET -8.9937 0.894989 0.2143
                  CHANNELS 3 Zrotation Xrotation Yrotation
                  JOINT RightHandMiddle2
                  {
                    OFFSET -4.0984 0.0113983 -0.0242
                    CHANNELS 3 Zrotation Xrotation Yrotation
                    JOINT RightHandMiddle3
                    {
                      OFFSET -2.2716 0.00691223 -0.0138001
                      CHANNELS 3 Zrotation Xrotation Yrotation
                      End Site
                      {
                        OFFSET -2.0404 -0.1441 0.0027
                      }
                    }
                  }
                }
                JOINT RightHandRing1
                {
                  OFFSET -8.5234 0.597198 -2.0164
                  CHANNELS 3 Zrotation Xrotation Yrotation
                  JOINT RightHandRing2
                  {
                    OFFSET -3.7188 -0.188309 -0.2328
                    CHANNELS 3 Zrotation Xrotation Yrotation
                    JOINT RightHandRing3
                    {
                      OFFSET -2.1191 -0.106598 -0.1332
                      CHANNELS 3 Zrotation Xrotation Yrotation
                      End Site
                      {
                        OFFSET -1.8737 -0.2304 -0.0886
                      }
                    }
                  }
                }
                JOINT RightHandPinky1
                {
                  OFFSET -7.9094 -0.601105 -3.4825
                  CHANNELS 3 Zrotation Xrotation Yrotation
                  JOINT RightHandPinky2
                  {
                    OFFSET -2.2874 -0.477005 -0.6314
                    CHANNELS 3 Zrotation Xrotation Yrotation
                    JOINT RightHandPinky3
                    {
                      OFFSET -1.6774 -0.349396 -0.4633
                      CHANNELS 3 Zrotation Xrotation Yrotation
                      End Site
                      {
                        OFFSET -1.4888 -0.4091 -0.3416
                      }
                    }
                  }
                }
                JOINT RightHandThumb1
                {
                  OFFSET -1.833 -1.38751 1.3896
                  CHANNELS 3 Zrotation Xrotation Yrotation
                  JOINT RightHandThumb2
                  {
                    OFFSET -3.41299 -1.12099 2.5732
                    CHANNELS 3 Zrotation Xrotation Yrotation
                    JOINT RightHandThumb3
                    {
                      OFFSET -2.24741 -0.804108 1.6192
                      CHANNELS 3 Zrotation Xrotation Yrotation
                      End Site
                      {
                        OFFSET -1.6527 -0.5689 1.1317
                      }
                    }
                  }
                }
              }
            }
          }
        }
      }
    }
  }
  JOINT RightUpLeg
  {
    OFFSET -9.1966 3.8861 -0.7581
    CHANNELS 3 Zrotation Xrotation Yrotation
    JOINT RightLeg
    {
      OFFSET -0.7359 -41.0265 0
      CHANNELS 3 Zrotation Xrotation Yrotation
      JOINT RightFoot
      {
        OFFSET 0 -40.2855 0
        CHANNELS 3 Zrotation Xrotation Yrotation
        JOINT RightToeBase
        {
          OFFSET 0 -5.6122 11.7359
          CHANNELS 3 Zrotation Xrotation Yrotation
          End Site
          {
            OFFSET 0 0 7.8731
          }
        }
      }
    }
  }
  JOINT LeftUpLeg
  {
    OFFSET 9.1965 3.8864 -0.7581
    CHANNELS 3 Zrotation Xrotation Yrotation
    JOINT LeftLeg
    {
      OFFSET 0.7359 -41.0268 0
      CHANNELS 3 Zrotation Xrotation Yrotation
      JOINT LeftFoot
      {
        OFFSET 0 -40.2855 0
        CHANNELS 3 Zrotation Xrotation Yrotation
        JOINT LeftToeBase
        {
          OFFSET 0 -5.6122 11.7359
          CHANNELS 3 Zrotation Xrotation Yrotation
          End Site
          {
            OFFSET 0 0 7.8731
          }
        }
      }
    }
  }
}
MOTION
Frames:	4
Frame Time:	0.0333333
-7.95736 5.55308 14.983 -90.0106 -72.2369 -0.0108061 0.132254 -4.99888 0.0889328 0.273898 -9.99736 0.190638 0.273898 -9.99736 0.190637 -22.3844 -22.9511 -9.89975 33.09 14.8002 -8.30307 -10.226 8.10613 0.983839 -43.8841 -7.00289 -63.6952 -66.0689 4.63435 -12.7972 -31.691 4.51663 -8.69956 0 0 -3.18055e-015 6.98855e-008 3.11239e-007 2.83288e-007 -7.95139e-016 -3.18055e-015 -3.18055e-015 0 0 -3.18055e-015 -0.0145978 -8.85255e-005 3.26739e-007 -5.29669e-031 -4.77083e-015 -6.36111e-015 0 0 -3.18055e-015 -0.0187396 -0.00117297 5.82471e-005 -3.97569e-016 0 -3.18055e-015 0 0 -3.18055e-015 -0.0122347 -0.00324163 0.000677127 1.19271e-015 1.59028e-015 -0 0 0 -3.18055e-015 6.98855e-008 3.11239e-007 2.83288e-007 -7.95139e-016 -3.18055e-015 -3.18055e-015 -13.773 1.29634 -22.1979 56.9455 14.2975 53.5178 57.7743 4.63818 71.5457 47.3376 -6.12654 12.2955 -5.22202e-008 5.03767e-007 1.80161e-006 -1.61352e-007 -6.19892e-007 5.61829e-007 -5.22202e-008 5.03767e-007 1.80161e-006 -5.22202e-008 5.03767e-007 1.80161e-006 0.0149996 -9.12944e-005 -4.89339e-007 -5.22682e-008 5.04003e-007 1.80155e-006 -5.22202e-008 5.03767e-007 1.80161e-006 0.0189882 -0.00119286 -5.85116e-005 -5.22643e-008 5.04069e-007 1.80153e-006 -5.22202e-008 5.03767e-007 1.80161e-006 0.0122726 -0.00325231 -0.000677183 -5.22125e-008 5.0397e-007 1.80156e-006 -5.22202e-008 5.03767e-007 1.80161e-006 -1.61352e-007 -6.19892e-007 5.61829e-007 -5.22202e-008 5.03767e-007 1.80161e-006 -27.0638 -50.4833 -31.5108 78.9099 26.8317 -96.3695 -4.35611 27.0429 7.33961 7.95139e-016 7.95139e-016 -6.36111e-015 11.231 -54.155 16.7159 -3.08533 38.8224 0.0145843 3.10326 48.7369 -3.33605 -2.95693e-006 -6.48987e-007 -6.6044e-006 
-8.0877 5.55333 14.9441 -90.0104 -71.9997 -0.0105864 0.127619 -5.07087 0.0943803 0.265258 -10.1416 0.201322 0.265235 -10.1416 0.201337 -22.7902 -22.8161 -10.0615 33.2297 14.8095 -8.33861 -10.2543 8.33219 0.965414 -43.8678 -7.00522 -63.6298 -65.9334 4.60324 -12.7533 -31.691 4.51664 -8.69955 -1.19271e-015 -4.77083e-015 -0 7.03547e-008 3.11481e-007 2.82919e-007 1.15295e-014 -1.59028e-015 -1.27222e-014 -1.19271e-015 -4.77083e-015 -0 -0.0146253 -8.80029e-005 6.76688e-007 -4.44557e-007 6.87693e-008 1.6648e-007 -1.19271e-015 -4.77083e-015 -0 -0.018754 -0.00117575 6.0257e-005 -7.95139e-016 -1.59028e-015 -3.18055e-015 -1.19271e-015 -4.77083e-015 -0 -0.0122477 -0.00324202 0.000675694 3.97569e-016 -2.70347e-014 -6.36111e-015 -1.19271e-015 -4.77083e-015 -0 7.03547e-008 3.11481e-007 2.82919e-007 1.15295e-014 -1.59028e-015 -1.27222e-014 -13.747 1.48035 -22.2869 56.9812 14.3585 53.5246 57.7879 4.68019 71.538 47.3562 -6.0693 12.2836 1.61431e-007 6.19852e-007 -5.61838e-007 -2.50621e-007 9.69965e-007 -6.34422e-007 7.40184e-007 3.02092e-006 3.79169e-006 1.61431e-007 6.19852e-007 -5.61838e-007 0.01498 -8.96538e-005 1.16951e-006 2.18672e-007 2.24768e-006 2.47911e-006 1.61431e-007 6.19852e-007 -5.61838e-007 0.0190229 -0.00119315 -6.10598e-005 2.18672e-007 2.24777e-006 2.47903e-006 1.61431e-007 6.19852e-007 -5.61838e-007 0.0123057 -0.00325581 -0.000675437 2.18743e-007 2.24764e-006 2.47916e-006 1.61431e-007 6.19852e-007 -5.61838e-007 -2.50621e-007 9.69965e-007 -6.34422e-007 7.40184e-007 3.02092e-006 3.79169e-006 -27.2018 -50.691 -31.7781 78.7597 26.8025 -96.3057 -4.4959 27.1432 7.35713 -4.37326e-015 1.59028e-015 -3.18055e-015 11.2886 -54.358 16.7747 -3.14198 38.6091 0.0474108 3.13044 48.9207 -3.33408 -1.72523e-008 -2.26655e-006 -1.26065e-007 
-7.95736 5.55308 14.983 -90.0106 -72.2369 -0.0108061 0.13225 -4.99886 0.0889112 0.273891 -9.99736 0.190655 0.273886 -9.99738 0.190637 -22.3843 -22.9508 -9.89976 33.09 14.8003 -8.30306 -10.2259 8.10616 0.98382 -43.8841 -7.00289 -63.6952 -66.0689 4.63436 -12.7972 -31.691 4.51663 -8.69956 3.97569e-016 0 -3.18055e-015 -7.95139e-016 3.18055e-015 -3.18055e-015 -1.19271e-015 1.59028e-015 -3.18055e-015 3.97569e-016 0 -3.18055e-015 -0.0146026 -8.83975e-005 -9.33143e-007 -0 0 3.18055e-015 3.97569e-016 0 -3.18055e-015 -0.0187687 -0.00117608 6.10439e-005 -4.35958e-007 5.53856e-008 1.69142e-007 3.97569e-016 0 -3.18055e-015 -0.0122346 -0.00323772 0.00067158 -1.19271e-015 -3.18055e-015 6.36111e-015 3.97569e-016 0 -3.18055e-015 -7.95139e-016 3.18055e-015 -3.18055e-015 -1.19271e-015 1.59028e-015 -3.18055e-015 -13.773 1.29638 -22.1979 56.9455 14.2975 53.5178 57.7743 4.63817 71.5457 47.3376 -6.12654 12.2955 7.95139e-016 7.95139e-015 1.27222e-014 7.95139e-016 7.95139e-015 9.54166e-015 1.98785e-015 3.18055e-015 6.36111e-015 7.95139e-016 7.95139e-015 1.27222e-014 0.0150001 -9.10593e-005 -5.2163e-006 3.97569e-016 0 3.18055e-015 7.95139e-016 7.95139e-015 1.27222e-014 0.0189694 -0.00118827 -5.89815e-005 -5.19743e-007 -7.7346e-007 -1.31393e-006 7.95139e-016 7.95139e-015 1.27222e-014 0.0122727 -0.00325118 -0.000675944 3.97569e-016 1.59028e-015 6.36111e-015 7.95139e-016 7.95139e-015 1.27222e-014 7.95139e-016 7.95139e-015 9.54166e-015 1.98785e-015 3.18055e-015 6.36111e-015 -27.0639 -50.4833 -31.5109 78.9099 26.8317 -96.3695 -4.35609 27.0429 7.3396 1.06684e-007 1.05841e-007 2.68065e-007 11.231 -54.155 16.7159 -3.08535 38.8225 0.0146126 3.10326 48.7369 -3.33604 -8.23396e-007 1.26016e-007 -2.26656e-006 
-7.67069 5.55249 15.0682 -90.0112 -72.759 -0.0112986 0.142613 -4.83998 0.0771592 0.293346 -9.67969 0.167378 0.293332 -9.67971 0.167382 -21.4883 -23.2466 -9.5419 32.7827 14.7797 -8.22493 -10.1631 7.60869 1.02445 -43.92 -6.99759 -63.8392 -66.3669 4.70292 -12.8937 -31.691 4.51663 -8.69955 -1.37726e-007 -6.21402e-007 -5.68191e-007 -1.37726e-007 -6.21402e-007 -5.68191e-007 -6.8863e-008 -3.10701e-007 -2.84096e-007 -1.37726e-007 -6.21402e-007 -5.68191e-007 -0.0146403 -8.89999e-005 5.17814e-008 -6.88652e-008 -3.10665e-007 -2.84135e-007 -1.37726e-007 -6.21402e-007 -5.68191e-007 -0.0187607 -0.0011782 5.63749e-005 -6.88686e-008 -3.10655e-007 -2.84146e-007 -1.37726e-007 -6.21402e-007 -5.68191e-007 -0.0123096 -0.0032596 0.000676449 -6.88745e-008 -3.10671e-007 -2.84127e-007 -1.37726e-007 -6.21402e-007 -5.68191e-007 -1.37726e-007 -6.21402e-007 -5.68191e-007 -6.8863e-008 -3.10701e-007 -2.84096e-007 -13.8285 0.890862 -22.0028 56.8671 14.1635 53.5028 57.7444 4.54583 71.5627 47.2967 -6.25244 12.3217 1.19271e-015 -1.59028e-015 -1.27222e-014 1.59028e-015 3.18055e-015 -1.59028e-014 1.59028e-015 1.59028e-015 -1.27222e-014 1.19271e-015 -1.59028e-015 -1.27222e-014 0.0150087 -9.34107e-005 -1.74681e-008 -3.97569e-016 -1.59028e-015 -0 1.19271e-015 -1.59028e-015 -1.27222e-014 0.0189593 -0.00118859 -6.36352e-005 -2.38542e-015 -1.59028e-015 -3.18055e-015 1.19271e-015 -1.59028e-015 -1.27222e-014 0.0122642 -0.00324581 -0.000675052 -2.78299e-015 0 -6.36111e-015 1.19271e-015 -1.59028e-015 -1.27222e-014 1.59028e-015 3.18055e-015 -1.59028e-014 1.59028e-015 1.59028e-015 -1.27222e-014 -26.7701 -50.0234 -30.9317 79.2403 26.8954 -96.5103 -4.04891 26.8224 7.30154 1.32417e-031 -2.38542e-015 3.18055e-015 11.108 -53.7082 16.5904 -2.96097 39.2921 -0.057809 3.04456 48.3324 -3.34112 -1.28461e-005 -4.53609e-007 -5.57691e-006 
